<?xml version="1.0" encoding="utf-8"?>
<!-- Generator: Adobe Illustrator 27.5.0, SVG Export Plug-In . SVG Version: 6.00 Build 0)  -->
<svg version="1.1" id="Layer_1" xmlns="http://www.w3.org/2000/svg" xmlns:xlink="http://www.w3.org/1999/xlink" x="0px"
	y="0px" viewBox="0 0 288 288.002" style="enable-background:new 0 0 288 288.002;" xml:space="preserve">
	<g id="Bat_64_">
	</g>
	<g id="Bat_63_">
	</g>
	<g id="Bat_62_">
	</g>
	<g id="Bat_61_">
	</g>
	<g id="Bat_60_">
	</g>
	<g id="Bat_59_">
	</g>
	<g id="Bat_58_">
	</g>
	<g id="Bat_57_">
	</g>
	<g id="Bat_56_">
	</g>
	<g id="Bat_55_">
	</g>
	<g id="Bat_54_">
	</g>
	<g id="Bat_53_">
	</g>
	<g id="Bat_52_">
	</g>
	<g id="Bat_51_">
	</g>
	<g id="Bat_50_">
	</g>
	<g id="Bat_49_">
	</g>
	<g id="Bat_48_">
	</g>
	<g id="Bat_47_">
	</g>
	<g id="Bat_46_">
	</g>
	<g id="Bat_45_">
	</g>
	<g id="Bat_44_">
	</g>
	<g id="Bat_43_">
	</g>
	<g id="Bat_42_">
	</g>
	<g id="Bat_41_">
	</g>
	<g id="Bat_40_">
	</g>
	<g id="Bat_39_">
	</g>
	<g id="Bat_38_">
	</g>
	<g id="Bat_37_">
	</g>
	<g id="Bat_36_">
	</g>
	<g id="Bat_35_">
	</g>
	<g id="Bat_34_">
	</g>
	<g id="Bat_33_">
	</g>
	<g id="Bat_32_">
	</g>
	<g id="Bat_31_">
	</g>
	<g id="Bat_30_">
	</g>
	<g id="Bat_29_">
	</g>
	<g id="Bat_28_">
	</g>
	<g id="Bat_27_">
	</g>
	<g id="Bat_26_">
	</g>
	<g id="Bat_25_">
	</g>
	<g id="Bat_24_">
	</g>
	<g id="Bat_23_">
	</g>
	<g id="Bat_22_">
	</g>
	<g id="Bat_21_">
	</g>
	<g id="Bat_20_">
	</g>
	<g id="Bat_19_">
	</g>
	<g id="Bat_18_">
	</g>
	<g id="Bat_17_">
	</g>
	<g id="Bat_16_">
	</g>
	<g id="Bat_15_">
	</g>
	<g id="Bat_14_">
	</g>
	<g id="Bat_13_">
	</g>
	<g id="Bat_12_">
	</g>
	<g id="Bat_11_">
	</g>
	<g id="Bat_10_">
	</g>
	<g id="Bat_9_">
	</g>
	<g id="Bat_8_">
	</g>
	<g id="Bat_7_">
	</g>
	<g id="Bat_6_">
	</g>
	<g id="Bat_5_">
	</g>
	<g id="Bat_4_">
	</g>
	<g id="Bat_3_">
	</g>
	<g id="Bat_2_">
	</g>
	<g id="Bat_1_">
	</g>
	<g id="Bat">
	</g>
	<g>
		<radialGradient id="SVGID_1_" cx="125.5507" cy="142.5558" r="219.3983" gradientUnits="userSpaceOnUse">
			<stop offset="0.3763" style="stop-color:#FFFFFF" />
			<stop offset="0.5733" style="stop-color:#F6F6F6" />
			<stop offset="0.9002" style="stop-color:#DCDCDC" />
			<stop offset="1" style="stop-color:#D3D3D3" />
		</radialGradient>
		<rect style="fill:url(#SVGID_1_);" width="288" height="288.002" />
		<g>
			<g>
				<path style="fill-rule:evenodd;clip-rule:evenodd;fill:#B7B7B7;" d="M253.139,234.565c1.014-0.037,2.026-0.01,3.043-0.01
				c0.125,0,0.25,0,0.418,0v-5.277c-0.542-0.051-1.108-0.127-1.674-0.158c-1.04-0.045-2.081-0.098-3.123-0.072
				c-1.589,0.033-3.094,0.42-4.407,1.361c-1.506,1.086-2.333,2.605-2.648,4.404c-0.131,0.738-0.164,1.508-0.184,2.26
				c-0.029,1.186-0.004,2.369-0.003,3.551v0.443h-5.047v5.893h5.017v14.807h6.131v-14.783h5.001c0.256-1.957,0.507-3.9,0.769-5.918
				c-0.402,0-0.763-0.004-1.124,0c-1.422,0.006-4.686,0-4.686,0s0.014-2.92,0.049-4.188
				C250.72,235.144,251.749,234.612,253.139,234.565z" />
			</g>
			<g>
				<path style="fill-rule:evenodd;clip-rule:evenodd;fill:#B7B7B7;" d="M250.51,179.383c1.38-0.05,2.758-0.013,4.142-0.013
				c0.17,0,0.34,0,0.57,0v-7.182c-0.738-0.07-1.508-0.174-2.279-0.215c-1.415-0.063-2.832-0.133-4.249-0.1
				c-2.163,0.045-4.21,0.572-5.998,1.853c-2.049,1.48-3.174,3.547-3.603,5.996c-0.178,1.003-0.224,2.052-0.251,3.075
				c-0.039,1.611-0.006,3.223-0.004,4.831v0.605h-6.869v8.02h6.827v20.151h8.344v-20.118h6.806c0.348-2.665,0.69-5.309,1.046-8.057
				c-0.547,0-1.038-0.004-1.529,0c-1.935,0.009-6.378,0-6.378,0s0.019-3.974,0.066-5.697
				C247.218,180.17,248.619,179.449,250.51,179.383z" />
			</g>
			<g>
				<path style="fill-rule:evenodd;clip-rule:evenodd;fill:#B7B7B7;" d="M46.943,179.02c1.125-0.041,2.25-0.01,3.379-0.01
				c0.139,0,0.277,0,0.465,0v-5.859c-0.602-0.059-1.231-0.143-1.859-0.176c-1.155-0.051-2.311-0.109-3.467-0.082
				c-1.765,0.037-3.435,0.467-4.894,1.512c-1.672,1.207-2.59,2.895-2.939,4.893c-0.146,0.818-0.183,1.674-0.205,2.508
				c-0.032,1.316-0.005,2.631-0.003,3.943v0.493h-5.604v6.542h5.57v16.442h6.808v-16.415h5.554c0.284-2.174,0.563-4.331,0.854-6.572
				c-0.446,0-0.847-0.004-1.248,0c-1.579,0.006-5.204,0-5.204,0s0.016-3.242,0.054-4.649
				C44.257,179.662,45.399,179.074,46.943,179.02z" />
			</g>
			<g>
				<path style="fill-rule:evenodd;clip-rule:evenodd;fill:#B4B4B4;" d="M277.006,261.067c-0.74-0.026-1.203-0.557-1.325-0.989
				c0.205,0.04,0.409,0.032,0.61-0.018c0.005-0.001,0.01-0.005,0.021-0.01c-0.401-0.093-0.71-0.308-0.925-0.653
				c-0.142-0.23-0.21-0.482-0.208-0.757c0.2,0.106,0.409,0.167,0.634,0.173c-0.301-0.218-0.503-0.502-0.586-0.864
				c-0.082-0.362-0.029-0.707,0.153-1.031c0.771,0.908,1.747,1.406,2.937,1.488c-0.008-0.058-0.017-0.106-0.023-0.156
				c-0.04-0.335,0.027-0.647,0.208-0.932c0.226-0.355,0.55-0.575,0.965-0.644c0.479-0.078,0.897,0.059,1.247,0.398
				c0.023,0.022,0.043,0.029,0.076,0.022c0.292-0.064,0.568-0.169,0.828-0.318c0.006-0.004,0.013-0.007,0.019-0.01
				c0.001-0.001,0.003-0.001,0.009-0.001c-0.112,0.331-0.318,0.587-0.61,0.774c0.276-0.03,0.539-0.103,0.793-0.213
				c0.002,0.002,0.004,0.005,0.005,0.006c-0.054,0.071-0.107,0.145-0.164,0.214c-0.151,0.186-0.325,0.351-0.518,0.492
				c-0.017,0.012-0.024,0.024-0.023,0.045c0.007,0.211,0,0.423-0.026,0.633c-0.055,0.442-0.179,0.864-0.367,1.267
				c-0.195,0.417-0.45,0.793-0.77,1.123c-0.543,0.562-1.196,0.923-1.957,1.091c-0.261,0.058-0.526,0.087-0.793,0.094
				c-0.821,0.024-1.58-0.179-2.279-0.611c-0.009-0.005-0.018-0.011-0.033-0.022c0.497,0.054,0.97-0.01,1.424-0.196
				C276.57,261.362,276.794,261.233,277.006,261.067z" />
			</g>
			<g>
				<path style="fill-rule:evenodd;clip-rule:evenodd;fill:#B4B4B4;" d="M156.231,257.045c-4.545-0.158-7.386-3.418-8.137-6.072
				c1.264,0.242,2.51,0.195,3.748-0.109c0.033-0.008,0.064-0.029,0.127-0.06c-2.462-0.573-4.362-1.889-5.682-4.013
				c-0.875-1.412-1.294-2.955-1.281-4.649c1.229,0.657,2.515,1.025,3.893,1.061c-1.851-1.338-3.093-3.08-3.6-5.307
				c-0.504-2.227-0.179-4.34,0.938-6.336c4.735,5.579,10.729,8.637,18.038,9.141c-0.05-0.35-0.104-0.65-0.14-0.959
				c-0.244-2.059,0.165-3.978,1.279-5.719c1.389-2.184,3.377-3.536,5.93-3.955c2.942-0.479,5.509,0.359,7.657,2.44
				c0.144,0.14,0.263,0.184,0.465,0.14c1.798-0.39,3.493-1.037,5.089-1.955c0.036-0.022,0.075-0.045,0.115-0.063
				c0.008-0.004,0.022-0.004,0.058-0.004c-0.691,2.036-1.952,3.602-3.745,4.76c1.694-0.188,3.311-0.637,4.871-1.313
				c0.013,0.015,0.024,0.029,0.035,0.041c-0.335,0.438-0.658,0.885-1.005,1.312c-0.929,1.146-1.994,2.149-3.18,3.02
				c-0.101,0.074-0.148,0.147-0.145,0.276c0.048,1.298-0.001,2.595-0.161,3.884c-0.338,2.717-1.096,5.308-2.255,7.785
				c-1.198,2.558-2.76,4.865-4.729,6.895c-3.331,3.447-7.345,5.667-12.02,6.699c-1.602,0.354-3.229,0.533-4.871,0.578
				c-5.043,0.146-9.707-1.104-13.996-3.756c-0.055-0.03-0.109-0.07-0.205-0.133c3.052,0.33,5.955-0.063,8.749-1.205
				C153.555,258.859,154.93,258.066,156.231,257.045z" />
			</g>
			<g>
				<path style="fill-rule:evenodd;clip-rule:evenodd;fill:#B4B4B4;" d="M215.822,197.32c-1.778-0.061-2.889-1.337-3.184-2.375
				c0.495,0.095,0.982,0.076,1.467-0.044c0.013-0.002,0.025-0.011,0.05-0.023c-0.963-0.225-1.707-0.739-2.223-1.57
				c-0.342-0.552-0.506-1.156-0.501-1.819c0.481,0.258,0.983,0.401,1.522,0.416c-0.724-0.523-1.21-1.205-1.408-2.076
				c-0.197-0.871-0.07-1.698,0.367-2.48c1.853,2.183,4.198,3.38,7.058,3.576c-0.02-0.137-0.041-0.255-0.055-0.375
				c-0.096-0.806,0.065-1.556,0.501-2.237c0.544-0.855,1.321-1.384,2.32-1.548c1.151-0.186,2.155,0.142,2.996,0.955
				c0.056,0.055,0.103,0.072,0.182,0.055c0.703-0.152,1.367-0.405,1.991-0.765c0.015-0.009,0.03-0.018,0.045-0.024
				c0.003-0.002,0.009-0.002,0.022-0.002c-0.27,0.797-0.764,1.409-1.465,1.862c0.663-0.073,1.295-0.249,1.906-0.514
				c0.005,0.006,0.009,0.012,0.014,0.016c-0.131,0.172-0.257,0.348-0.393,0.514c-0.363,0.449-0.78,0.842-1.244,1.182
				c-0.04,0.029-0.058,0.059-0.057,0.108c0.019,0.508-0.001,1.015-0.063,1.521c-0.132,1.063-0.429,2.076-0.882,3.045
				c-0.469,1.001-1.08,1.904-1.85,2.697c-1.304,1.35-2.873,2.218-4.703,2.622c-0.627,0.138-1.263,0.208-1.906,0.226
				c-1.973,0.058-3.797-0.432-5.476-1.47c-0.021-0.012-0.043-0.027-0.08-0.052c1.194,0.13,2.33-0.024,3.423-0.472
				C214.775,198.031,215.313,197.721,215.822,197.32z" />
			</g>
			<g>
				<path style="fill:#C7C7C7;"
					d="M86.467,180.877c-0.007,0.119-0.019,0.225-0.019,0.32c0,2.463,0.007,7.787,0.007,7.787
				s10.245,0,10.797,0c0,0.801-0.948,4.019-3.965,6.068c-1.767,1.195-3.755,1.748-5.86,1.881c-1.486,0.096-2.948-0.053-4.377-0.506
				c-4.503-1.447-7.856-5.523-8.316-10.486c-0.112-1.221-0.031-2.449,0.245-3.658c1.338-5.869,6.899-10.221,13.267-9.279
				c2.822,0.416,4.446,1.592,5.927,2.854c1.948-1.953,3.882-3.881,5.866-5.873c-0.483-0.348-1.596-1.477-3.575-2.619
				c-2.96-1.715-6.151-2.572-9.566-2.609c-0.643-0.006-1.289,0.033-1.929,0.063c-1.128,0.043-2.236,0.238-3.324,0.517
				c-4.363,1.111-7.982,3.402-10.821,6.896c-2.729,3.363-4.191,7.221-4.46,11.527c-0.117,1.824,0.023,3.643,0.426,5.43
				c1.134,5,3.753,9.029,7.89,12.058c3.203,2.344,6.811,3.592,10.769,3.811c2.224,0.123,4.439-0.086,6.611-0.652
				c4.041-1.057,7.396-3.168,9.918-6.52c3.655-4.863,4.537-11.094,3.46-17.01C99.098,180.877,92.792,180.877,86.467,180.877z" />
				<polygon style="fill:#C7C7C7;" points="129.83,181.141 122.998,181.141 122.998,174.305 122.998,174.106 122.795,174.106 
				117.694,174.106 117.489,174.106 117.489,174.305 117.489,181.141 110.655,181.141 110.457,181.141 110.457,181.34 
				110.457,186.445 110.457,186.647 110.655,186.647 117.489,186.647 117.489,193.484 117.489,193.686 117.694,193.686 
				122.795,193.686 122.998,193.686 122.998,193.484 122.998,186.647 129.83,186.647 130.032,186.647 130.032,186.445 
				130.032,181.34 130.032,181.141 			" />
			</g>
			<g>
				<path style="fill:#C7C7C7;"
					d="M223.522,257.425c-0.002,0.039-0.006,0.073-0.006,0.105c0,0.81,0.002,2.563,0.002,2.563
				s3.372,0,3.554,0c0,0.264-0.311,1.323-1.305,1.997c-0.582,0.394-1.236,0.575-1.93,0.619c-0.488,0.032-0.97-0.017-1.44-0.166
				c-1.482-0.477-2.586-1.818-2.737-3.452c-0.036-0.401-0.01-0.806,0.081-1.203c0.44-1.932,2.27-3.365,4.367-3.055
				c0.929,0.137,1.463,0.523,1.95,0.94c0.642-0.643,1.278-1.277,1.931-1.934c-0.159-0.113-0.525-0.485-1.177-0.861
				c-0.974-0.564-2.024-0.847-3.148-0.859c-0.211-0.002-0.424,0.011-0.635,0.021c-0.371,0.014-0.736,0.078-1.094,0.171
				c-1.437,0.365-2.628,1.119-3.563,2.27c-0.898,1.107-1.379,2.377-1.468,3.794c-0.038,0.601,0.008,1.199,0.141,1.787
				c0.373,1.646,1.235,2.973,2.597,3.97c1.054,0.771,2.241,1.182,3.544,1.254c0.732,0.041,1.462-0.028,2.177-0.215
				c1.33-0.348,2.435-1.043,3.265-2.146c1.203-1.601,1.493-3.65,1.139-5.598C227.679,257.425,225.604,257.425,223.522,257.425z" />
				<polygon style="fill:#C7C7C7;" points="237.794,257.511 235.546,257.511 235.546,255.261 235.546,255.195 235.479,255.195 
				233.8,255.195 233.733,255.195 233.733,255.261 233.733,257.511 231.483,257.511 231.419,257.511 231.419,257.577 
				231.419,259.257 231.419,259.323 231.483,259.323 233.733,259.323 233.733,261.574 233.733,261.64 233.8,261.64 235.479,261.64 
				235.546,261.64 235.546,261.574 235.546,259.323 237.794,259.323 237.862,259.323 237.862,259.257 237.862,257.577 
				237.862,257.511 			" />
			</g>
			<g>
				<path style="fill:#C7C7C7;"
					d="M83.533,203.508c0,0.005-0.001,0.009-0.001,0.013c0,0.103,0,0.327,0,0.327s0.43,0,0.453,0
				c0,0.033-0.04,0.169-0.167,0.255c-0.074,0.05-0.157,0.073-0.246,0.079c-0.063,0.004-0.124-0.003-0.184-0.021
				c-0.189-0.061-0.33-0.232-0.349-0.441c-0.005-0.051-0.001-0.102,0.01-0.153c0.056-0.246,0.289-0.429,0.557-0.39
				c0.119,0.018,0.187,0.067,0.248,0.12c0.082-0.082,0.163-0.163,0.246-0.246c-0.02-0.015-0.067-0.063-0.15-0.11
				c-0.124-0.071-0.258-0.107-0.401-0.109c-0.027,0-0.054,0.001-0.081,0.003c-0.047,0.002-0.094,0.01-0.139,0.022
				c-0.183,0.047-0.335,0.142-0.454,0.289c-0.115,0.142-0.176,0.303-0.187,0.484c-0.005,0.076,0.001,0.152,0.018,0.228
				c0.048,0.21,0.158,0.379,0.331,0.506c0.135,0.099,0.286,0.15,0.452,0.159c0.093,0.006,0.186-0.003,0.277-0.027
				c0.169-0.044,0.31-0.133,0.416-0.273c0.153-0.203,0.19-0.465,0.145-0.713C84.063,203.508,83.799,203.508,83.533,203.508z" />
				<polygon style="fill:#C7C7C7;" points="85.353,203.519 85.066,203.519 85.066,203.231 85.066,203.224 85.058,203.224 
				84.844,203.224 84.835,203.224 84.835,203.231 84.835,203.519 84.548,203.519 84.54,203.519 84.54,203.527 84.54,203.741 
				84.54,203.75 84.548,203.75 84.835,203.75 84.835,204.036 84.835,204.045 84.844,204.045 85.058,204.045 85.066,204.045 
				85.066,204.036 85.066,203.75 85.353,203.75 85.361,203.75 85.361,203.741 85.361,203.527 85.361,203.519 			" />
			</g>
			<g>
				<path style="fill:#A7A7A7;" d="M7.616,218.279h0.422v1.355H7.616V218.279z M7.827,217.606c0.135,0,0.244,0.109,0.244,0.243
				c0,0.135-0.109,0.245-0.244,0.245c-0.135,0-0.244-0.11-0.244-0.245C7.583,217.716,7.692,217.606,7.827,217.606" />
				<path style="fill:#A7A7A7;" d="M8.302,218.279h0.404v0.186h0.005c0.056-0.107,0.194-0.219,0.399-0.219
				c0.426,0,0.505,0.28,0.505,0.645v0.743h-0.42v-0.658c0-0.157-0.003-0.359-0.219-0.359c-0.219,0-0.253,0.171-0.253,0.348v0.67
				h-0.42V218.279z" />
			</g>
			<g>
				<path style="fill:#A7A7A7;" d="M21.461,205.749h9.678v31.086h-9.678V205.749z M26.301,190.298c3.092,0,5.604,2.51,5.604,5.596
				c0,3.094-2.512,5.607-5.604,5.607c-3.101,0-5.606-2.514-5.606-5.607C20.695,192.808,23.2,190.298,26.301,190.298" />
				<path style="fill:#A7A7A7;" d="M37.202,205.749h9.268v4.244h0.127c1.291-2.443,4.445-5.02,9.148-5.02
				c9.783,0,11.588,6.438,11.588,14.811v17.051h-9.656v-15.117c0-3.605-0.072-8.242-5.022-8.242c-5.031,0-5.798,3.922-5.798,7.975
				v15.385h-9.655V205.749z" />
			</g>
			<g>
				<path style="fill:#A7A7A7;"
					d="M181.175,179.69h4.939v15.865h-4.939V179.69z M183.645,171.803c1.578,0,2.86,1.281,2.86,2.855
				c0,1.579-1.282,2.862-2.86,2.862c-1.583,0-2.861-1.283-2.861-2.862C180.784,173.084,182.062,171.803,183.645,171.803" />
				<path style="fill:#A7A7A7;" d="M189.21,179.69h4.73v2.166h0.064c0.659-1.247,2.269-2.563,4.669-2.563
				c4.993,0,5.915,3.285,5.915,7.559v8.703h-4.929v-7.715c0-1.841-0.037-4.207-2.563-4.207c-2.568,0-2.96,2.002-2.96,4.07v7.852
				h-4.928V179.69z" />
			</g>
			<g>
				<path style="fill:#CBCBCB;"
					d="M122.778,228.932c-7.267,0-13.181,5.911-13.181,13.18c0,7.269,5.913,13.179,13.181,13.179
				c7.268,0,13.181-5.91,13.181-13.179C135.959,234.843,130.046,228.932,122.778,228.932z M131.285,235.362
				c1.347,1.697,2.2,3.803,2.337,6.1c-2.811-0.557-5.279-0.521-7.415-0.137c-0.27-0.635-0.547-1.237-0.825-1.811
				C127.828,238.47,129.817,237.073,131.285,235.362z M129.652,233.706c-1.397,1.701-3.292,2.904-5.344,3.754
				c-0.229-0.41-0.457-0.799-0.677-1.162c-1.285-2.121-2.521-3.717-3.398-4.747c0.817-0.198,1.669-0.303,2.545-0.303
				C125.385,231.248,127.778,232.171,129.652,233.706z M117.899,232.407c0.821,0.905,2.489,2.895,4.177,5.826
				c-3.825,1.105-7.765,1.223-9.825,1.188C113.037,236.356,115.129,233.804,117.899,232.407z M111.916,242.111
				c0-0.127,0.002-0.249,0.006-0.371c0.29,0.005,0.623,0.01,0.995,0.01c1.604,0,3.896-0.098,6.396-0.518
				c1.378-0.229,2.673-0.534,3.879-0.913c0.252,0.508,0.499,1.035,0.741,1.584c-2.198,0.725-3.958,1.812-5.298,2.888
				c-1.93,1.552-3.239,3.261-4.023,4.476C112.934,247.354,111.916,244.85,111.916,242.111z M116.345,250.858
				c0.635-1.037,1.846-2.736,3.743-4.262c1.447-1.161,3.018-2.011,4.707-2.553c0.885,2.416,1.602,5.152,1.961,8.176
				c-1.232,0.488-2.574,0.755-3.977,0.755C120.374,252.975,118.148,252.187,116.345,250.858z M128.941,251.054
				c-0.398-2.777-1.075-5.301-1.876-7.537c2.007-0.297,4.159-0.205,6.443,0.289C133.039,246.802,131.336,249.394,128.941,251.054z" />
			</g>
			<g>
				<path style="fill:#CBCBCB;"
					d="M144.516,229.887c-0.871,0-1.579,0.709-1.579,1.579c0,0.87,0.708,1.579,1.579,1.579
				c0.871,0,1.579-0.709,1.579-1.579C146.094,230.596,145.386,229.887,144.516,229.887z M145.535,230.657
				c0.161,0.203,0.264,0.456,0.28,0.73c-0.337-0.066-0.632-0.063-0.888-0.017c-0.032-0.075-0.066-0.147-0.099-0.217
				C145.121,231.029,145.359,230.862,145.535,230.657z M145.339,230.459c-0.167,0.203-0.394,0.348-0.64,0.449
				c-0.027-0.049-0.055-0.096-0.081-0.139c-0.154-0.254-0.302-0.445-0.407-0.568c0.098-0.024,0.2-0.037,0.305-0.037
				C144.828,230.164,145.114,230.275,145.339,230.459z M143.931,230.304c0.099,0.108,0.298,0.347,0.5,0.697
				c-0.458,0.133-0.93,0.146-1.177,0.143C143.349,230.776,143.6,230.471,143.931,230.304z M143.214,231.466
				c0-0.016,0-0.03,0.001-0.044c0.035,0,0.075,0.001,0.119,0.001c0.192,0,0.467-0.012,0.766-0.063
				c0.165-0.027,0.32-0.064,0.464-0.109c0.03,0.062,0.06,0.124,0.089,0.19c-0.263,0.086-0.474,0.217-0.635,0.346
				c-0.231,0.186-0.388,0.391-0.482,0.536C143.336,232.094,143.214,231.794,143.214,231.466z M143.745,232.514
				c0.076-0.124,0.221-0.328,0.448-0.511c0.173-0.139,0.361-0.241,0.564-0.306c0.106,0.289,0.192,0.617,0.235,0.98
				c-0.148,0.059-0.309,0.09-0.477,0.09C144.227,232.767,143.961,232.673,143.745,232.514z M145.254,232.537
				c-0.048-0.333-0.129-0.635-0.225-0.903c0.24-0.035,0.498-0.024,0.771,0.035C145.745,232.027,145.54,232.338,145.254,232.537z" />
			</g>
			<g>
				<path style="fill:#CBCBCB;"
					d="M264.02,224.865c-1.044,0-1.894,0.85-1.894,1.894c0,1.044,0.85,1.893,1.894,1.893
				c1.045,0,1.894-0.85,1.894-1.893C265.914,225.715,265.065,224.865,264.02,224.865z M265.243,225.789
				c0.193,0.244,0.316,0.547,0.335,0.877c-0.404-0.08-0.758-0.076-1.065-0.02c-0.039-0.091-0.079-0.178-0.119-0.26
				C264.746,226.235,265.032,226.035,265.243,225.789z M265.008,225.551c-0.201,0.244-0.473,0.418-0.768,0.539
				c-0.033-0.059-0.065-0.114-0.097-0.166c-0.185-0.306-0.362-0.535-0.488-0.683c0.117-0.028,0.24-0.044,0.366-0.044
				C264.395,225.197,264.738,225.33,265.008,225.551z M263.319,225.364c0.118,0.13,0.358,0.416,0.601,0.837
				c-0.55,0.159-1.116,0.176-1.412,0.171C262.62,225.932,262.921,225.565,263.319,225.364z M262.459,226.759
				c0-0.019,0-0.036,0.001-0.054c0.042,0.001,0.09,0.002,0.143,0.002c0.23,0,0.56-0.014,0.919-0.074
				c0.198-0.033,0.384-0.077,0.558-0.132c0.036,0.073,0.072,0.149,0.106,0.228c-0.316,0.104-0.569,0.261-0.762,0.415
				c-0.277,0.224-0.465,0.469-0.578,0.643C262.605,227.512,262.459,227.152,262.459,226.759z M263.096,228.016
				c0.091-0.148,0.265-0.393,0.538-0.612c0.208-0.167,0.434-0.289,0.676-0.367c0.127,0.348,0.23,0.741,0.282,1.175
				c-0.177,0.07-0.37,0.109-0.571,0.109C263.674,228.32,263.354,228.207,263.096,228.016z M264.906,228.044
				c-0.057-0.399-0.155-0.762-0.27-1.083c0.288-0.043,0.598-0.029,0.926,0.041C265.495,227.433,265.25,227.806,264.906,228.044z" />
			</g>
			<g>
				<path style="fill-rule:evenodd;clip-rule:evenodd;fill:#C3C3C3;"
					d="M96.363,165.934c-0.002,0.01-0.005,0.018-0.007,0.025
				c-0.121,0.473-0.134,0.577-0.258,0.796c-0.059,0.105-0.125,0.203-0.199,0.298c-0.008,0.01-0.016,0.024-0.033,0.021
				c-0.019-0.005-0.02-0.021-0.021-0.035c-0.02-0.144-0.031-0.287-0.026-0.433c0.006-0.188,0.03-0.253,0.273-1.275
				c0.003-0.016,0-0.029-0.006-0.043c-0.058-0.157-0.069-0.316-0.019-0.478c0.11-0.35,0.505-0.376,0.575-0.088
				c0.043,0.178-0.07,0.411-0.157,0.755c-0.072,0.284,0.263,0.486,0.548,0.279c0.264-0.191,0.366-0.65,0.347-0.975
				c-0.039-0.647-0.749-0.788-1.199-0.579c-0.517,0.238-0.634,0.879-0.401,1.172c0.03,0.037,0.052,0.06,0.043,0.098
				c-0.015,0.059-0.028,0.117-0.044,0.176c-0.012,0.043-0.048,0.059-0.092,0.041c-0.086-0.034-0.158-0.09-0.216-0.161
				c-0.198-0.245-0.255-0.73,0.007-1.142c0.29-0.455,0.83-0.639,1.322-0.583c0.588,0.067,0.96,0.469,1.03,0.925
				c0.032,0.208,0.009,0.721-0.283,1.082c-0.336,0.417-0.88,0.444-1.131,0.189C96.398,165.981,96.382,165.957,96.363,165.934z" />
			</g>
			<g>
				<path style="fill-rule:evenodd;clip-rule:evenodd;fill:#C3C3C3;"
					d="M68.099,169.987c-0.012,0.043-0.023,0.078-0.032,0.113
				c-0.54,2.113-0.599,2.582-1.154,3.564c-0.264,0.466-0.562,0.908-0.891,1.33c-0.037,0.048-0.072,0.11-0.146,0.096
				c-0.082-0.019-0.087-0.09-0.096-0.156c-0.089-0.642-0.138-1.286-0.117-1.934c0.028-0.845,0.133-1.135,1.221-5.712
				c0.016-0.071-0.002-0.129-0.025-0.191c-0.26-0.702-0.312-1.417-0.084-2.14c0.493-1.561,2.263-1.682,2.572-0.393
				c0.191,0.797-0.314,1.84-0.701,3.381c-0.32,1.271,1.177,2.177,2.456,1.248c1.18-0.856,1.638-2.908,1.551-4.362
				c-0.172-2.899-3.351-3.526-5.369-2.593c-2.312,1.069-2.838,3.936-1.794,5.246c0.133,0.166,0.234,0.269,0.191,0.437
				c-0.068,0.263-0.127,0.527-0.199,0.788c-0.054,0.195-0.217,0.264-0.413,0.185c-0.384-0.154-0.705-0.401-0.965-0.723
				c-0.887-1.099-1.14-3.27,0.032-5.107c1.298-2.037,3.714-2.862,5.921-2.611c2.634,0.299,4.299,2.099,4.611,4.142
				c0.142,0.93,0.04,3.224-1.266,4.844c-1.502,1.865-3.938,1.987-5.061,0.845C68.254,170.196,68.184,170.093,68.099,169.987z" />
			</g>
			<g>
				<path style="fill-rule:evenodd;clip-rule:evenodd;fill:#C3C3C3;"
					d="M205.629,253.06c-0.002,0.006-0.003,0.012-0.005,0.018
				c-0.084,0.328-0.093,0.4-0.179,0.553c-0.041,0.072-0.087,0.141-0.139,0.207c-0.005,0.008-0.011,0.018-0.022,0.014
				c-0.013-0.002-0.014-0.014-0.015-0.023c-0.014-0.1-0.021-0.199-0.018-0.301c0.004-0.131,0.02-0.176,0.189-0.887
				c0.003-0.01,0-0.02-0.004-0.029c-0.04-0.109-0.048-0.221-0.013-0.332c0.076-0.242,0.351-0.262,0.399-0.06
				c0.03,0.123-0.048,0.285-0.108,0.525c-0.05,0.197,0.183,0.338,0.381,0.193c0.184-0.133,0.254-0.451,0.241-0.678
				c-0.027-0.449-0.521-0.547-0.834-0.402c-0.359,0.166-0.441,0.611-0.279,0.814c0.021,0.025,0.037,0.041,0.03,0.068
				c-0.01,0.041-0.02,0.082-0.031,0.121c-0.008,0.031-0.034,0.041-0.064,0.029c-0.06-0.023-0.11-0.063-0.15-0.113
				c-0.138-0.17-0.177-0.506,0.005-0.793c0.202-0.314,0.577-0.443,0.919-0.404c0.409,0.047,0.667,0.326,0.716,0.643
				c0.022,0.145,0.006,0.5-0.196,0.752c-0.233,0.289-0.611,0.309-0.786,0.131C205.653,253.091,205.642,253.075,205.629,253.06z" />
			</g>
			<g>
				<polygon style="fill:#ACACAC;" points="240.43,158.839 233.347,163.463 238.218,167.389 245.379,162.98 			" />
				<polygon style="fill:#ACACAC;" points="257.36,163.474 250.296,158.872 245.379,162.98 252.499,167.381 			" />
				<polygon style="fill:#ACACAC;" points="245.379,171.784 250.296,175.903 257.36,171.299 252.499,167.381 			" />
				<polygon style="fill:#ACACAC;" points="233.347,171.316 240.43,175.903 245.379,171.784 238.218,167.389 			" />
				<polygon style="fill:#ACACAC;" points="245.379,172.671 240.439,176.81 238.323,175.436 238.323,176.971 245.379,181.212 
				252.461,176.961 252.461,175.436 250.333,176.81 			" />
			</g>
			<g>
				<polygon style="fill:#ACACAC;" points="64.799,188.47 63.979,189.006 64.543,189.46 65.372,188.949 			" />
				<polygon style="fill:#ACACAC;" points="66.759,189.007 65.941,188.474 65.372,188.949 66.196,189.459 			" />
				<polygon style="fill:#ACACAC;" points="65.372,189.969 65.941,190.445 66.759,189.913 66.196,189.459 			" />
				<polygon style="fill:#ACACAC;" points="63.979,189.915 64.799,190.445 65.372,189.969 64.543,189.46 			" />
				<polygon style="fill:#ACACAC;" points="65.372,190.071 64.8,190.551 64.555,190.392 64.555,190.569 65.372,191.06 
				66.191,190.568 66.191,190.392 65.945,190.551 			" />
			</g>
			<g>
				<polygon style="fill:#ACACAC;" points="169.261,208.491 168.169,209.204 168.92,209.808 170.024,209.128 			" />
				<polygon style="fill:#ACACAC;" points="171.871,209.204 170.782,208.495 170.024,209.128 171.122,209.808 			" />
				<polygon style="fill:#ACACAC;" points="170.024,210.485 170.782,211.12 171.871,210.411 171.122,209.808 			" />
				<polygon style="fill:#ACACAC;" points="168.169,210.413 169.261,211.12 170.024,210.485 168.92,209.808 			" />
				<polygon style="fill:#ACACAC;" points="170.024,210.622 169.263,211.261 168.936,211.05 168.936,211.286 170.024,211.939 
				171.116,211.284 171.116,211.05 170.788,211.261 			" />
			</g>
			<g>
				<path style="fill-rule:evenodd;clip-rule:evenodd;fill:#BEBEBE;"
					d="M98.015,255.741c-0.664-0.009-1.303-0.173-1.912-0.439
				c-2.103-0.932-3.264-2.908-3.33-4.723c-0.036-0.991-0.021-5.998-0.017-6.824c0.017-2.532,1.771-4.621,4.07-5.263
				c0.984-0.273,5.176-0.328,6.199,0.011c1.584,0.523,3.285,1.869,3.728,3.633c0.346,1.385,0.12,2.564,1.005,2.688
				c0.942,0.126,1.223,0.075,1.704,0.126c0.497,0.054,0.737,0.486,0.741,0.912c0.044,4.951-0.011,5.519-0.507,6.604
				c-0.925,2.021-2.823,3.146-4.562,3.261c-0.263,0.015-0.529,0.017-0.793,0.019C104.292,255.745,98.621,255.749,98.015,255.741z
				 M104.489,251.194c1.522-0.002,1.471-2.076,0.036-2.076c-2.009,0-4.019,0-6.028,0.002c-1.602,0-1.477,2.061-0.117,2.072
				C99.181,251.198,104.437,251.194,104.489,251.194z M101.57,244.884c1.185-0.151,1.305-2.063-0.308-2.068
				c-0.307-0.002-2.671-0.013-2.976,0.016c-1.355,0.119-1.228,2.057,0.105,2.071C98.439,244.902,101.314,244.917,101.57,244.884z" />
			</g>
			<g>
				<path style="fill-rule:evenodd;clip-rule:evenodd;fill:#BEBEBE;"
					d="M100.225,222.655c-0.206-0.002-0.405-0.053-0.594-0.137
				c-0.653-0.289-1.013-0.902-1.034-1.465c-0.011-0.309-0.007-1.863-0.005-2.119c0.005-0.787,0.55-1.434,1.264-1.633
				c0.306-0.086,1.607-0.104,1.924,0.002c0.492,0.162,1.02,0.58,1.157,1.129c0.107,0.43,0.038,0.795,0.312,0.834
				c0.293,0.039,0.379,0.023,0.529,0.039c0.154,0.016,0.229,0.15,0.23,0.283c0.014,1.537-0.003,1.713-0.158,2.051
				c-0.287,0.627-0.876,0.975-1.416,1.012c-0.082,0.004-0.164,0.004-0.246,0.006C102.174,222.657,100.413,222.657,100.225,222.655z
				 M102.235,221.243c0.472,0,0.456-0.645,0.011-0.645c-0.624,0-1.248,0-1.872,0.002c-0.497,0-0.458,0.639-0.036,0.643
				C100.587,221.245,102.218,221.243,102.235,221.243z M101.329,219.284c0.368-0.047,0.405-0.641-0.096-0.641
				c-0.095-0.002-0.829-0.004-0.924,0.004c-0.42,0.037-0.381,0.639,0.033,0.642C100.357,219.29,101.249,219.296,101.329,219.284z" />
			</g>
			<g>
				<path style="fill-rule:evenodd;clip-rule:evenodd;fill:#BEBEBE;"
					d="M116.535,275.219c-0.653-0.009-1.282-0.17-1.88-0.433
				c-2.068-0.916-3.211-2.859-3.275-4.645c-0.035-0.976-0.021-5.899-0.017-6.712c0.017-2.491,1.742-4.545,4.003-5.177
				c0.968-0.267,5.091-0.322,6.097,0.011c1.558,0.515,3.231,1.838,3.666,3.573c0.339,1.362,0.118,2.522,0.988,2.643
				c0.927,0.125,1.203,0.074,1.676,0.125c0.489,0.053,0.725,0.478,0.729,0.896c0.044,4.87-0.01,5.429-0.498,6.496
				c-0.91,1.987-2.777,3.094-4.487,3.207c-0.259,0.015-0.521,0.017-0.779,0.019C122.71,275.223,117.131,275.226,116.535,275.219z
				 M122.903,270.747c1.497-0.002,1.446-2.042,0.035-2.042c-1.976,0-3.952,0-5.929,0.002c-1.575,0-1.453,2.027-0.115,2.038
				C117.682,270.751,122.851,270.747,122.903,270.747z M120.032,264.54c1.166-0.148,1.283-2.029-0.303-2.035
				c-0.301-0.001-2.627-0.012-2.927,0.017c-1.333,0.117-1.208,2.022,0.103,2.036C116.953,264.558,119.781,264.572,120.032,264.54z" />
			</g>
			<g>
				<path style="fill-rule:evenodd;clip-rule:evenodd;fill:#AEAEAE;" d="M274.22,171.754c0.014-0.085,0.021-0.172,0.021-0.261
				c0-0.892-0.723-1.614-1.614-1.614c-0.088,0-0.175,0.007-0.26,0.02c-0.148-0.099-0.326-0.156-0.517-0.156
				c-0.516,0-0.934,0.418-0.934,0.934c0,0.175,0.048,0.338,0.131,0.477c-0.023,0.109-0.036,0.223-0.036,0.339
				c0,0.891,0.723,1.614,1.615,1.614c0.116,0,0.23-0.013,0.339-0.036c0.139,0.082,0.301,0.129,0.473,0.129
				c0.516,0,0.934-0.418,0.934-0.934C274.373,172.077,274.316,171.9,274.22,171.754z M273.117,172.416
				c-0.225,0.102-0.558,0.105-0.792,0.049c-0.33-0.079-0.477-0.268-0.504-0.418c-0.042-0.232,0.223-0.315,0.362-0.152
				c0.032,0.037,0.061,0.075,0.092,0.113c0.183,0.216,0.574,0.194,0.7,0.021c0.051-0.07,0.05-0.164-0.002-0.23
				c-0.059-0.074-0.124-0.074-0.681-0.216c-0.542-0.138-0.532-0.618-0.375-0.852c0.127-0.191,0.374-0.267,0.605-0.284
				c0.395-0.03,0.83,0.157,0.869,0.415c0.017,0.105-0.039,0.188-0.144,0.211c-0.149,0.035-0.201-0.061-0.283-0.148
				c-0.171-0.182-0.503-0.165-0.623-0.065c-0.09,0.075-0.104,0.205-0.017,0.275c0.139,0.111,0.594,0.142,0.816,0.24
				c0.229,0.101,0.337,0.28,0.335,0.497C273.475,172.13,273.351,172.31,273.117,172.416z" />
			</g>
			<g>
				<path style="fill-rule:evenodd;clip-rule:evenodd;fill:#AEAEAE;" d="M195.316,271.186c0.013-0.084,0.02-0.169,0.02-0.256
				c0-0.873-0.707-1.581-1.581-1.581c-0.087,0-0.171,0.007-0.254,0.021c-0.145-0.097-0.318-0.152-0.506-0.152
				c-0.505,0-0.915,0.409-0.915,0.914c0,0.171,0.047,0.331,0.129,0.468c-0.023,0.107-0.035,0.218-0.035,0.331
				c0,0.873,0.708,1.581,1.581,1.581c0.114,0,0.226-0.012,0.333-0.035c0.136,0.08,0.294,0.126,0.464,0.126
				c0.505,0,0.914-0.409,0.914-0.914C195.466,271.502,195.411,271.329,195.316,271.186z M194.236,271.834
				c-0.22,0.1-0.546,0.103-0.775,0.047c-0.323-0.077-0.468-0.261-0.494-0.408c-0.041-0.228,0.218-0.309,0.354-0.15
				c0.031,0.037,0.06,0.074,0.09,0.111c0.179,0.212,0.562,0.191,0.686,0.021c0.049-0.068,0.049-0.161-0.002-0.227
				c-0.057-0.072-0.122-0.072-0.667-0.21c-0.53-0.135-0.521-0.605-0.367-0.835c0.125-0.187,0.367-0.262,0.592-0.278
				c0.387-0.03,0.813,0.153,0.852,0.405c0.016,0.104-0.039,0.184-0.141,0.208c-0.146,0.034-0.197-0.06-0.277-0.146
				c-0.167-0.178-0.492-0.162-0.61-0.064c-0.088,0.074-0.102,0.2-0.016,0.27c0.135,0.109,0.582,0.139,0.799,0.235
				c0.225,0.099,0.33,0.274,0.328,0.486C194.586,271.554,194.465,271.73,194.236,271.834z" />
			</g>
			<g>
				<path style="fill-rule:evenodd;clip-rule:evenodd;fill:#AEAEAE;" d="M96.529,238.12c0.125-0.775,0.192-1.572,0.192-2.384
				c0-8.157-6.611-14.77-14.768-14.77c-0.808,0-1.602,0.067-2.376,0.19c-1.352-0.902-2.977-1.427-4.727-1.427
				c-4.717,0-8.542,3.825-8.542,8.544c0,1.599,0.438,3.09,1.201,4.366c-0.214,0.999-0.325,2.036-0.325,3.096
				c0,8.153,6.611,14.767,14.77,14.767c1.063,0,2.104-0.111,3.106-0.325c1.271,0.747,2.75,1.178,4.33,1.178
				c4.718,0,8.543-3.825,8.543-8.544C97.932,241.078,97.415,239.468,96.529,238.12z M86.442,244.183
				c-2.053,0.932-5.102,0.955-7.244,0.442c-3.015-0.724-4.365-2.439-4.611-3.821c-0.381-2.124,2.042-2.877,3.311-1.398
				c0.292,0.34,0.556,0.695,0.843,1.037c1.672,1.977,5.25,1.784,6.405,0.197c0.464-0.639,0.46-1.5-0.018-2.109
				c-0.533-0.674-1.135-0.674-6.231-1.969c-4.954-1.256-4.868-5.652-3.43-7.796c1.164-1.745,3.428-2.442,5.534-2.604
				c3.615-0.275,7.59,1.439,7.953,3.793c0.149,0.96-0.36,1.716-1.315,1.939c-1.368,0.316-1.837-0.557-2.592-1.361
				c-1.561-1.661-4.6-1.509-5.696-0.598c-0.826,0.688-0.953,1.871-0.154,2.518c1.267,1.019,5.436,1.298,7.462,2.194
				c2.103,0.925,3.084,2.57,3.069,4.545C89.714,241.565,88.584,243.21,86.442,244.183z" />
			</g>
			<g>
				<path style="fill:#B8B8B8;" d="M155.383,257.869c-0.158,3.444-6.447,12.192-10.091,12.192c-1.071,0-1.977-0.988-2.719-2.967
				c-1.418-5.2-2.046-8.401-3.254-8.401c-0.136,0-0.617,0.288-1.441,0.864l-0.865-1.112c2.3-2.021,4.162-3.925,5.394-4.035
				c1.429-0.14,2.307,0.836,2.637,2.923c0.424,2.678,1.034,7.002,2.102,7.002c0.823,0,2.859-3.353,2.965-4.571
				c0.182-1.734-1.244-1.834-2.597-1.278c0.907-2.937,2.637-4.365,5.191-4.281C154.6,254.257,155.493,255.481,155.383,257.869
				L155.383,257.869z" />
			</g>
			<g>
				<path style="fill:#B8B8B8;" d="M222.809,200.184c-0.403,8.784-16.443,31.095-25.737,31.095c-2.732,0-5.041-2.521-6.933-7.565
				c-3.617-13.264-5.22-21.428-8.3-21.428c-0.348,0-1.573,0.734-3.675,2.203l-2.206-2.836c5.868-5.154,10.616-10.011,13.758-10.291
				c3.645-0.356,5.884,2.131,6.725,7.455c1.083,6.827,2.639,17.857,5.36,17.857c2.1,0,7.292-8.551,7.564-11.659
				c0.465-4.424-3.172-4.678-6.624-3.26c2.314-7.489,6.725-11.132,13.24-10.92C220.814,190.971,223.091,194.091,222.809,200.184
				L222.809,200.184z" />
			</g>
			<g>
				<path style="fill:#B8B8B8;" d="M87.414,243.707c-0.457,9.961-18.646,35.26-29.185,35.26c-3.098,0-5.717-2.859-7.861-8.579
				c-4.103-15.039-5.92-24.298-9.412-24.298c-0.396,0-1.784,0.833-4.167,2.499l-2.501-3.216c6.653-5.845,12.038-11.352,15.601-11.67
				c4.133-0.404,6.673,2.417,7.626,8.454c1.228,7.741,2.992,20.249,6.078,20.249c2.381,0,8.269-9.696,8.577-13.221
				c0.526-5.017-3.597-5.305-7.511-3.697c2.624-8.492,7.626-12.623,15.014-12.382C85.151,233.26,87.734,236.799,87.414,243.707
				L87.414,243.707z" />
			</g>
			<g>
				<path style="fill-rule:evenodd;clip-rule:evenodd;fill:#9B9B9B;" d="M20.056,236.551c0.076-0.29,0.141-0.545,0.209-0.796
				c0.222-0.811,0.448-1.616,0.659-2.427c0.03-0.122,0.018-0.283-0.04-0.39c-2.054-3.918,0.065-8.657,4.377-9.669
				c3.915-0.919,7.435,1.724,8.077,5.259c0.669,3.686-1.742,7.189-5.399,7.827c-1.454,0.251-2.843,0.039-4.17-0.608
				c-0.118-0.057-0.286-0.073-0.411-0.043C21.589,236.148,20.413,236.481,20.056,236.551z M21.612,235.017
				c0.665-0.174,1.278-0.327,1.885-0.497c0.172-0.048,0.304-0.022,0.455,0.065c1.15,0.664,2.382,0.91,3.698,0.699
				c3.031-0.486,5.107-3.322,4.644-6.342c-0.481-3.131-3.416-5.23-6.518-4.662c-3.751,0.689-5.743,4.871-3.877,8.184
				c0.207,0.366,0.264,0.669,0.125,1.059C21.858,233.993,21.756,234.484,21.612,235.017z" />
				<path style="fill-rule:evenodd;clip-rule:evenodd;fill:#9B9B9B;" d="M28.515,232.968c-1.304-0.047-3.38-1.076-4.803-3.547
				c-0.505-0.878-0.432-1.88,0.307-2.567c0.251-0.233,0.564-0.175,0.858-0.127c0.072,0.011,0.147,0.121,0.184,0.204
				c0.189,0.43,0.376,0.862,0.541,1.304c0.087,0.234-0.073,0.452-0.411,0.841c-0.108,0.122-0.129,0.237-0.045,0.38
				c0.547,0.926,1.312,1.597,2.317,1.989c0.148,0.058,0.258,0.021,0.352-0.095c0.533-0.65,0.587-0.841,0.868-0.707
				c1.349,0.646,1.455,0.673,1.461,0.825C30.19,232.605,29.146,233.015,28.515,232.968z" />
			</g>
			<g>
				<path style="fill-rule:evenodd;clip-rule:evenodd;fill:#9B9B9B;" d="M175.218,262.901c0.071-0.273,0.132-0.512,0.196-0.747
				c0.208-0.76,0.42-1.516,0.618-2.275c0.028-0.114,0.017-0.265-0.037-0.365c-1.927-3.674,0.061-8.118,4.104-9.066
				c3.671-0.861,6.972,1.616,7.574,4.931c0.627,3.457-1.633,6.74-5.063,7.34c-1.363,0.235-2.666,0.036-3.91-0.57
				c-0.11-0.054-0.268-0.069-0.385-0.04C176.655,262.523,175.552,262.835,175.218,262.901z M176.676,261.463
				c0.624-0.164,1.198-0.308,1.768-0.467c0.162-0.044,0.285-0.021,0.428,0.061c1.078,0.622,2.233,0.853,3.468,0.655
				c2.842-0.456,4.789-3.114,4.354-5.946c-0.451-2.936-3.203-4.905-6.111-4.372c-3.518,0.647-5.385,4.567-3.636,7.674
				c0.194,0.344,0.247,0.628,0.117,0.994C176.908,260.502,176.811,260.963,176.676,261.463z" />
				<path style="fill-rule:evenodd;clip-rule:evenodd;fill:#9B9B9B;" d="M183.149,259.541c-1.223-0.044-3.17-1.009-4.503-3.326
				c-0.474-0.822-0.405-1.762,0.289-2.406c0.235-0.22,0.528-0.165,0.804-0.119c0.067,0.01,0.138,0.113,0.172,0.191
				c0.178,0.403,0.353,0.808,0.507,1.222c0.081,0.22-0.069,0.425-0.385,0.789c-0.102,0.114-0.122,0.223-0.043,0.355
				c0.513,0.869,1.23,1.498,2.173,1.866c0.139,0.054,0.242,0.02,0.33-0.089c0.5-0.61,0.551-0.789,0.814-0.664
				c1.265,0.605,1.364,0.631,1.369,0.773C184.719,259.2,183.741,259.585,183.149,259.541z" />
			</g>
			<g>
				<path style="fill-rule:evenodd;clip-rule:evenodd;fill:#9B9B9B;" d="M16.7,276.657c0.222-0.855,0.414-1.602,0.614-2.342
				c0.651-2.381,1.317-4.75,1.937-7.134c0.089-0.356,0.052-0.831-0.117-1.146c-6.039-11.516,0.192-25.447,12.866-28.422
				c11.508-2.701,21.855,5.068,23.744,15.457c1.967,10.836-5.122,21.132-15.872,23.01c-4.273,0.74-8.358,0.115-12.258-1.787
				c-0.347-0.168-0.839-0.217-1.208-0.125C21.205,275.474,17.749,276.45,16.7,276.657z M21.271,272.148
				c1.956-0.513,3.757-0.963,5.542-1.462c0.506-0.14,0.894-0.066,1.34,0.192c3.38,1.95,7.001,2.676,10.871,2.055
				c8.91-1.431,15.013-9.765,13.651-18.643c-1.416-9.203-10.042-15.377-19.16-13.705c-11.028,2.027-16.883,14.318-11.398,24.056
				c0.607,1.079,0.774,1.968,0.366,3.116C21.998,269.136,21.696,270.581,21.271,272.148z" />
				<path style="fill-rule:evenodd;clip-rule:evenodd;fill:#9B9B9B;" d="M41.563,266.124c-3.833-0.14-9.938-3.166-14.118-10.428
				c-1.485-2.579-1.27-5.524,0.904-7.545c0.736-0.688,1.658-0.518,2.521-0.374c0.211,0.032,0.433,0.356,0.541,0.601
				c0.557,1.264,1.105,2.533,1.589,3.832c0.257,0.688-0.214,1.33-1.207,2.471c-0.317,0.359-0.38,0.697-0.134,1.117
				c1.609,2.722,3.856,4.693,6.812,5.849c0.435,0.167,0.759,0.063,1.035-0.279c1.567-1.913,1.726-2.471,2.551-2.08
				c3.966,1.899,4.275,1.979,4.293,2.426C46.486,265.056,43.42,266.261,41.563,266.124z" />
			</g>
			<g>
				<path style="fill-rule:evenodd;clip-rule:evenodd;fill:#ADADAD;" d="M212.96,230.262c0-0.001,0-0.002,0-0.002
				c0,0-0.472,0.299-0.773,0.065c-0.115-0.09-0.106-0.205-0.107-0.703c0-0.087,0-0.551,0.001-0.599
				c0.012-0.003-0.043-0.002,0.742-0.002v-0.515c-0.176-0.001-0.719,0.004-0.743,0c0-0.882,0.001-0.8-0.001-0.82h-0.457
				c-0.001,0-0.002,0-0.003,0c-0.068,0.427-0.187,0.728-0.657,0.87v0.465c0.117,0,0.232,0,0.352,0c0.001,0.079,0-0.13,0.001,1.141
				c0,0.262,0.035,0.422,0.239,0.583c0.282,0.224,0.731,0.232,1.05,0.152c0.15-0.038,0.324-0.113,0.356-0.134
				C212.961,230.747,212.961,230.807,212.96,230.262z" />
			</g>
			<g>
				<path style="fill-rule:evenodd;clip-rule:evenodd;fill:#ADADAD;" d="M182.681,188.898c0-0.01-0.002-0.02-0.008-0.026
				c0,0-5.186,3.292-8.5,0.721c-1.265-0.983-1.172-2.251-1.174-7.736c0-0.954-0.008-6.059,0.009-6.577
				c0.131-0.037-0.474-0.023,8.161-0.023v-5.664c-1.943-0.008-7.914,0.043-8.17,0c0-9.701,0.007-8.795-0.018-9.024h-5.025
				c-0.016,0.003-0.025,0.003-0.037,0.007c-0.748,4.688-2.052,8-7.228,9.563v5.119c1.287,0,2.561-0.004,3.877,0
				c0.017,0.865,0-1.433,0.01,12.545c0.001,2.877,0.386,4.64,2.628,6.415c3.108,2.456,8.044,2.554,11.556,1.671
				c1.647-0.414,3.558-1.246,3.917-1.469C182.689,194.23,182.689,194.894,182.681,188.898z" />
			</g>
			<g>
				<path style="fill-rule:evenodd;clip-rule:evenodd;fill:#ADADAD;" d="M158.253,215.406c0-0.01-0.002-0.021-0.009-0.028
				c0,0-5.606,3.559-9.188,0.779c-1.368-1.063-1.268-2.433-1.27-8.363c0-1.03-0.009-6.55,0.009-7.11
				c0.142-0.04-0.512-0.025,8.823-0.025v-6.123c-2.1-0.008-8.555,0.047-8.832,0c0-10.487,0.007-9.508-0.02-9.756h-5.433
				c-0.017,0.004-0.027,0.004-0.04,0.008c-0.809,5.066-2.218,8.648-7.813,10.338v5.533c1.392,0,2.768-0.004,4.191,0
				c0.018,0.936,0-1.549,0.011,13.561c0.002,3.111,0.417,5.017,2.841,6.936c3.36,2.656,8.695,2.762,12.492,1.808
				c1.781-0.448,3.847-1.349,4.235-1.589C158.262,221.17,158.262,221.887,158.253,215.406z" />
			</g>
			<g>
				<path style="fill-rule:evenodd;clip-rule:evenodd;fill:#9E9E9E;" d="M281.287,233.161c-0.471,0.088-0.896-0.171-0.926-0.729
				c-0.029-0.521,0.33-0.52,0.412-0.309c0.081,0.207,0.018,0.392-0.015,0.568c-0.002,0.011,0.001,0.024,0.006,0.034
				c0.115,0.188,0.45,0.17,0.468,0.126c0.062-0.151,0.098-0.309,0.107-0.472c0.036-0.654-0.356-0.938-0.841-0.872
				c-0.343,0.046-0.556,0.278-0.63,0.602c-0.057,0.247-0.035,0.594,0.119,0.889c0.102,0.196,0.246,0.354,0.441,0.46
				c0.014,0.008,0.016,0.015,0.009,0.028c-0.146,0.283-0.323,0.543-0.545,0.773c-0.02,0.02-0.02,0.02-0.038-0.003
				c-0.546-0.663-0.739-1.395-0.85-2.229h-0.563c0.037,0.173,0.236,1.955,1.162,2.675c0.047,0.036,0.096,0.068,0.152,0.089
				c0.093,0.033,0.18,0.015,0.261-0.037c0.176-0.111,0.625-0.56,0.92-1.149c0.006-0.014,0.014-0.022,0.03-0.023
				c0.086-0.004,0.198-0.011,0.322-0.034V233.161z" />
			</g>
			<g>
				<path style="fill-rule:evenodd;clip-rule:evenodd;fill:#9E9E9E;" d="M123.278,169.606c-0.646,0.12-1.227-0.234-1.269-0.997
				c-0.04-0.715,0.452-0.712,0.564-0.424c0.11,0.284,0.025,0.537-0.021,0.779c-0.003,0.015,0.001,0.033,0.008,0.046
				c0.157,0.259,0.617,0.233,0.642,0.173c0.085-0.207,0.134-0.423,0.146-0.646c0.048-0.895-0.487-1.286-1.152-1.195
				c-0.469,0.064-0.761,0.382-0.862,0.825c-0.078,0.338-0.048,0.814,0.162,1.217c0.14,0.268,0.336,0.483,0.604,0.63
				c0.019,0.011,0.022,0.02,0.012,0.039c-0.2,0.387-0.442,0.744-0.747,1.058c-0.027,0.026-0.027,0.026-0.052-0.005
				c-0.748-0.907-1.011-1.909-1.163-3.052h-0.771c0.051,0.236,0.323,2.677,1.592,3.662c0.063,0.05,0.13,0.094,0.208,0.122
				c0.127,0.045,0.246,0.019,0.357-0.051c0.242-0.153,0.857-0.767,1.26-1.575c0.009-0.018,0.019-0.028,0.041-0.029
				c0.118-0.006,0.271-0.016,0.441-0.048V169.606z" />
			</g>
			<g>
				<path style="fill-rule:evenodd;clip-rule:evenodd;fill:#9E9E9E;" d="M11.56,246.93c-0.624,0.116-1.187-0.227-1.227-0.965
				c-0.038-0.691,0.437-0.688,0.545-0.41c0.107,0.275,0.024,0.52-0.021,0.754c-0.002,0.014,0.001,0.032,0.008,0.045
				c0.152,0.25,0.597,0.225,0.621,0.167c0.082-0.2,0.129-0.409,0.141-0.625c0.047-0.865-0.471-1.243-1.114-1.155
				c-0.454,0.062-0.736,0.37-0.834,0.798c-0.075,0.327-0.046,0.786,0.157,1.178c0.135,0.259,0.325,0.467,0.583,0.608
				c0.018,0.01,0.022,0.019,0.012,0.038c-0.193,0.374-0.428,0.719-0.723,1.021c-0.026,0.026-0.026,0.026-0.051-0.004
				c-0.723-0.877-0.978-1.846-1.124-2.951H7.79c0.049,0.229,0.313,2.588,1.539,3.541c0.061,0.048,0.127,0.092,0.201,0.118
				c0.123,0.044,0.238,0.019,0.345-0.049c0.234-0.148,0.829-0.741,1.218-1.522c0.009-0.019,0.019-0.028,0.04-0.029
				c0.114-0.006,0.263-0.016,0.427-0.046V246.93z" />
			</g>
			<g>
				<path style="fill-rule:evenodd;clip-rule:evenodd;fill:#AAAAAA;" d="M70.365,270.298c0,0.647-0.526,1.173-1.174,1.173
				c-0.648,0-1.174-0.525-1.174-1.173c0-0.648,0.526-1.174,1.174-1.174C69.839,269.124,70.365,269.649,70.365,270.298z" />
				<path style="fill-rule:evenodd;clip-rule:evenodd;fill:#B4B4B4;" d="M73.387,270.298c0,0.647-0.525,1.173-1.174,1.173
				c-0.648,0-1.173-0.525-1.173-1.173c0-0.648,0.525-1.174,1.173-1.174C72.862,269.124,73.387,269.649,73.387,270.298z" />
			</g>
			<g>
				<path style="fill-rule:evenodd;clip-rule:evenodd;fill:#AAAAAA;"
					d="M122.975,193.619c0,0.317-0.257,0.575-0.575,0.575
				c-0.317,0-0.574-0.258-0.574-0.575c0-0.316,0.257-0.574,0.574-0.574C122.718,193.045,122.975,193.303,122.975,193.619z" />
				<path style="fill-rule:evenodd;clip-rule:evenodd;fill:#B4B4B4;"
					d="M124.454,193.619c0,0.317-0.257,0.575-0.574,0.575
				c-0.317,0-0.574-0.258-0.574-0.575c0-0.316,0.257-0.574,0.574-0.574C124.197,193.045,124.454,193.303,124.454,193.619z" />
			</g>
			<g>
				<path style="fill-rule:evenodd;clip-rule:evenodd;fill:#AAAAAA;" d="M14.526,190.516c0,1.347-1.092,2.439-2.439,2.439
				c-1.347,0-2.44-1.093-2.44-2.439c0-1.349,1.093-2.44,2.44-2.44C13.434,188.075,14.526,189.167,14.526,190.516z" />
				<path style="fill-rule:evenodd;clip-rule:evenodd;fill:#B4B4B4;" d="M20.81,190.516c0,1.347-1.092,2.439-2.441,2.439
				c-1.347,0-2.439-1.093-2.439-2.439c0-1.349,1.092-2.44,2.439-2.44C19.718,188.075,20.81,189.167,20.81,190.516z" />
			</g>
			<g>
				<path style="fill-rule:evenodd;clip-rule:evenodd;fill:#C2C2C2;" d="M30.502,168.867c-0.096-0.031-0.161-0.095-0.196-0.19
				c-0.085-0.232-0.11-1.209,0.053-1.4c0.056-0.066,0.128-0.104,0.213-0.113c0.44-0.048,1.8-0.041,1.957,0.016
				c0.092,0.033,0.157,0.093,0.193,0.186c0.093,0.24,0.096,1.118-0.012,1.35c-0.03,0.063-0.078,0.107-0.138,0.14
				C32.408,168.94,30.718,168.939,30.502,168.867z M31.201,168.41c0.265-0.138,0.527-0.273,0.792-0.411
				c-0.266-0.139-0.528-0.275-0.792-0.413C31.201,167.861,31.201,168.134,31.201,168.41z" />
			</g>
			<g>
				<path style="fill-rule:evenodd;clip-rule:evenodd;fill:#C2C2C2;" d="M277.479,196.874c-0.168-0.055-0.281-0.165-0.342-0.332
				c-0.148-0.407-0.192-2.11,0.093-2.445c0.097-0.115,0.223-0.183,0.372-0.198c0.768-0.082,3.142-0.07,3.415,0.028
				c0.16,0.058,0.274,0.162,0.336,0.323c0.162,0.421,0.168,1.951-0.021,2.356c-0.051,0.11-0.135,0.188-0.241,0.243
				C280.805,197,277.856,196.998,277.479,196.874z M278.699,196.076c0.462-0.24,0.92-0.478,1.383-0.718
				c-0.464-0.242-0.922-0.48-1.383-0.721C278.699,195.118,278.699,195.594,278.699,196.076z" />
			</g>
			<g>
				<path style="fill-rule:evenodd;clip-rule:evenodd;fill:#C2C2C2;" d="M260.233,207.044c-0.253-0.082-0.424-0.249-0.515-0.5
				c-0.224-0.614-0.289-3.181,0.14-3.687c0.147-0.173,0.336-0.274,0.561-0.298c1.158-0.125,4.736-0.107,5.148,0.042
				c0.241,0.087,0.413,0.244,0.506,0.487c0.244,0.634,0.253,2.942-0.032,3.553c-0.078,0.165-0.204,0.282-0.363,0.366
				C265.247,207.234,260.801,207.231,260.233,207.044z M262.072,205.841c0.696-0.36,1.386-0.719,2.085-1.081
				c-0.7-0.365-1.39-0.725-2.085-1.087C262.072,204.398,262.072,205.114,262.072,205.841z" />
			</g>
			<g>
				<path style="fill:#C2C2C2;" d="M218.368,232.584c3.425,0,6.204,2.783,6.204,6.206c0,3.432-2.779,6.206-6.204,6.206
				c-3.427,0-6.204-2.774-6.204-6.206C212.165,235.367,214.941,232.584,218.368,232.584z" />
				<path style="fill:#C2C2C2;" d="M212.169,223.948c11.549,0,20.97,9.365,20.97,21.093h8.631c0-16.391-13.276-29.728-29.601-29.728
				V223.948z" />
				<path style="fill:#C2C2C2;" d="M212.182,208.646c19.963,0,36.206,16.336,36.206,36.4h8.626c0-24.829-20.113-45.032-44.832-45.032
				V208.646z" />
			</g>
			<g>
				<circle style="fill:#C2C2C2;" cx="256.966" cy="266.806" r="0.338" />
				<path style="fill:#C2C2C2;"
					d="M256.628,265.998c0.628,0,1.141,0.51,1.141,1.148h0.47c0-0.892-0.723-1.617-1.611-1.617V265.998z" />
				<path style="fill:#C2C2C2;"
					d="M256.629,265.165c1.086,0,1.97,0.889,1.97,1.98h0.469c0-1.351-1.094-2.449-2.439-2.449V265.165z" />
			</g>
			<g>
				<path style="fill:#C2C2C2;" d="M168.392,241.991c3.581,0,6.486,2.91,6.486,6.489c0,3.589-2.905,6.489-6.486,6.489
				c-3.584,0-6.487-2.9-6.487-6.489C161.905,244.901,164.808,241.991,168.392,241.991z" />
				<path style="fill:#C2C2C2;" d="M161.91,232.962c12.075,0,21.926,9.792,21.926,22.055h9.024c0-17.138-13.881-31.084-30.95-31.084
				V232.962z" />
				<path style="fill:#C2C2C2;" d="M161.924,216.962c20.873,0,37.855,17.081,37.855,38.059h9.02c0-25.96-21.029-47.083-46.876-47.083
				V216.962z" />
			</g>
			<g>
				<path id="rect3003_66_" style="fill:#BBBBBB;" d="M93.774,265.079c-0.402,0-0.729,0.326-0.729,0.729v1.035
				c0,0.096-0.077,0.172-0.172,0.172s-0.172-0.076-0.172-0.172v-0.461h-0.556v0.48c0,0.402,0.326,0.727,0.729,0.727
				c0.402,0,0.729-0.324,0.729-0.727v-1.055c0-0.096,0.077-0.172,0.172-0.172c0.095,0,0.172,0.076,0.172,0.172v0.211l0.23,0.105
				l0.326-0.105v-0.211C94.502,265.405,94.176,265.079,93.774,265.079z M93.947,266.392v0.471c0,0.402,0.326,0.727,0.728,0.727
				c0.402,0,0.729-0.324,0.729-0.727v-0.461h-0.556v0.461c0,0.094-0.077,0.172-0.172,0.172s-0.172-0.078-0.172-0.172v-0.471
				l-0.326,0.105L93.947,266.392z" />
			</g>
			<g>
				<path id="rect3003_65_" style="fill:#BBBBBB;" d="M122.686,210.816c-1.815,0-3.287,1.473-3.287,3.288v4.67
				c0,0.429-0.348,0.777-0.778,0.777c-0.43,0-0.779-0.349-0.779-0.777v-2.076h-2.508v2.163c0,1.814,1.472,3.285,3.287,3.285
				c1.814,0,3.287-1.471,3.287-3.285v-4.757c0-0.431,0.348-0.778,0.778-0.778c0.43,0,0.779,0.348,0.779,0.778v0.951l1.037,0.476
				l1.47-0.476v-0.951C125.972,212.289,124.501,210.816,122.686,210.816z M123.464,216.741v2.12c0,1.814,1.471,3.285,3.286,3.285
				c1.815,0,3.286-1.471,3.286-3.285v-2.075h-2.508v2.075c0,0.429-0.348,0.777-0.778,0.777c-0.43,0-0.779-0.349-0.779-0.777v-2.12
				l-1.47,0.476L123.464,216.741z" />
			</g>
			<g>
				<path id="rect3003_61_" style="fill:#BBBBBB;" d="M14.431,267.174c-0.295,0-0.535,0.239-0.535,0.535v0.76
				c0,0.07-0.057,0.126-0.127,0.126c-0.07,0-0.126-0.056-0.126-0.126v-0.338h-0.408v0.352c0,0.295,0.239,0.534,0.535,0.534
				c0.295,0,0.535-0.239,0.535-0.534v-0.774c0-0.07,0.057-0.127,0.127-0.127c0.07,0,0.126,0.057,0.126,0.127v0.154l0.169,0.078
				l0.239-0.078v-0.154C14.965,267.413,14.726,267.174,14.431,267.174z M14.557,268.138v0.346c0,0.295,0.239,0.534,0.535,0.534
				c0.295,0,0.535-0.239,0.535-0.534v-0.338h-0.408v0.338c0,0.069-0.057,0.126-0.127,0.126c-0.07,0-0.127-0.057-0.127-0.126v-0.346
				l-0.239,0.078L14.557,268.138z" />
			</g>
			<g>
				<g>
					<polygon style="fill:#AFAFAF;" points="148.167,171.972 146.96,174.062 146.347,173.003 147.557,170.911 				" />
				</g>
				<g>
					<polygon style="fill:#AFAFAF;" points="150.096,172.939 148.873,172.94 147.667,170.849 148.892,170.849 				" />
				</g>
				<g>
					<polygon style="fill:#AFAFAF;" points="150.099,173.067 149.488,174.126 147.07,174.124 147.681,173.067 				" />
				</g>
			</g>
			<g>
				<g>
					<polygon style="fill:#AFAFAF;" points="211.657,165.944 206.936,174.114 204.543,169.978 209.27,161.804 				" />
				</g>
				<g>
					<polygon style="fill:#AFAFAF;"
						points="219.195,169.728 214.415,169.735 209.701,161.558 214.487,161.558 				" />
				</g>
				<g>
					<polygon style="fill:#AFAFAF;" points="219.205,170.228 216.818,174.366 207.366,174.36 209.755,170.226 				" />
				</g>
			</g>
			<g>
				<g>
					<polygon style="fill:#AFAFAF;" points="61.008,226.582 60.125,228.11 59.678,227.336 60.562,225.808 				" />
				</g>
				<g>
					<polygon style="fill:#AFAFAF;" points="62.418,227.29 61.524,227.291 60.643,225.762 61.538,225.762 				" />
				</g>
				<g>
					<polygon style="fill:#AFAFAF;" points="62.42,227.384 61.974,228.157 60.206,228.156 60.653,227.383 				" />
				</g>
			</g>
		</g>
		<g>
			<g>
				<path style="fill:#ABAEC2;" d="M98.099,109.394c-0.687-0.369-1.303-0.552-1.849-0.552c-0.548,0-1.015,0.194-1.402,0.587
				c-0.389,0.393-0.582,0.866-0.582,1.421c0,0.391,0.116,0.81,0.346,1.253c0.231,0.446,0.752,1.156,1.563,2.137
				c0.809,0.975,1.429,1.825,1.857,2.544c0.428,0.719,0.642,1.544,0.642,2.475c0,1.159-0.349,2.102-1.047,2.823
				c-0.697,0.724-1.609,1.085-2.736,1.085c-0.62,0-1.379-0.183-2.276-0.55v-1.875c0.024,0.01,0.048,0.021,0.072,0.038
				c0.123,0.089,0.381,0.226,0.773,0.41c0.392,0.183,0.775,0.275,1.15,0.275c0.612,0,1.116-0.204,1.513-0.612
				c0.396-0.409,0.593-0.932,0.593-1.567c0-0.44-0.101-0.85-0.302-1.224c-0.201-0.375-0.567-0.888-1.097-1.533L93.91,114.8
				c-0.546-0.672-0.949-1.284-1.21-1.839c-0.263-0.557-0.393-1.218-0.393-1.985c0-1.135,0.331-2.06,0.991-2.77
				c0.662-0.711,1.519-1.067,2.571-1.067c0.734,0,1.478,0.184,2.229,0.552V109.394z" />
				<path style="fill:#ABAEC2;" d="M100.988,115.141c0-3.385,0.333-5.575,0.998-6.569c0.665-0.994,1.761-1.494,3.287-1.494
				c1.747,0,2.908,0.559,3.483,1.67c0.576,1.115,0.863,3.119,0.863,6.014c0,2.595-0.128,4.394-0.386,5.398
				c-0.257,1.002-0.702,1.74-1.334,2.214c-0.633,0.472-1.492,0.708-2.578,0.708c-1.118,0-1.975-0.217-2.571-0.653
				c-0.595-0.437-1.038-1.144-1.328-2.123C101.133,119.324,100.988,117.604,100.988,115.141z M107.415,115.264
				c0-2.961-0.174-4.79-0.521-5.486c-0.348-0.697-0.87-1.046-1.565-1.046c-0.819,0-1.38,0.418-1.683,1.254
				c-0.303,0.835-0.454,2.244-0.454,4.226v0.856c0,2.211,0.122,3.822,0.368,4.838c0.245,1.015,0.835,1.522,1.769,1.522
				c0.573,0,1.063-0.284,1.473-0.854c0.41-0.572,0.614-2.15,0.614-4.735V115.264z" />
				<path style="fill:#ABAEC2;" d="M119.048,122.714c-0.63,0.302-1.258,0.452-1.887,0.452c-1.257,0-2.344-0.484-3.263-1.458
				c-0.918-0.973-1.377-3.002-1.377-6.089c0-3.349,0.459-5.604,1.377-6.765c0.919-1.159,2.03-1.738,3.337-1.738
				c0.489,0,1.094,0.081,1.813,0.243v1.91c-0.474-0.188-0.919-0.282-1.335-0.282c-0.816,0-1.515,0.416-2.094,1.246
				c-0.58,0.828-0.869,2.465-0.869,4.907c0,1.454,0.063,2.591,0.189,3.413c0.127,0.822,0.418,1.475,0.875,1.961
				c0.458,0.486,1.033,0.73,1.727,0.73c0.408,0,0.91-0.127,1.507-0.38V122.714z" />
				<path style="fill:#ABAEC2;" d="M122.059,107.386h2.106v15.598h-2.106V107.386z" />
				<path style="fill:#ABAEC2;" d="M135.478,122.983h-2.029l-0.57-3.085h-3.302l-0.579,3.085h-2.004l3.366-15.598h1.727
				L135.478,122.983z M132.596,118.319l-1.37-7.402h-0.05l-1.297,7.402H132.596z" />
				<path style="fill:#ABAEC2;" d="M143.547,122.983h-5.645v-15.598h2.105v13.846h3.539V122.983z" />
				<path style="fill:#ABAEC2;" d="M161.104,122.983h-1.943l-0.792-9.979h-0.049l-2.126,9.979h-1.31l-2.012-9.979h-0.062
				l-0.818,9.979h-1.969l1.53-15.598h1.82l2.171,10.934h0.05l2.22-10.934h1.82L161.104,122.983z" />
				<path style="fill:#ABAEC2;" d="M169.051,122.983h-5.645v-15.598h5.546v1.774h-3.465v4.946h3.208v1.776h-3.208v5.376h3.564
				V122.983z" />
				<path style="fill:#ABAEC2;" d="M171.585,107.386h3.036c1.437,0,2.569,0.54,3.398,1.621c0.828,1.082,1.242,3.115,1.242,6.104
				c0,2.88-0.363,4.913-1.09,6.098c-0.727,1.183-2.032,1.774-3.918,1.774h-2.669V107.386z M173.692,108.987v12.416
				c0.881,0,1.55-0.162,2.007-0.489c0.458-0.326,0.798-0.935,1.023-1.825c0.225-0.89,0.337-2.223,0.337-4.004
				c0-2.269-0.21-3.853-0.63-4.75c-0.421-0.896-1.239-1.348-2.455-1.348H173.692z" />
				<path style="fill:#ABAEC2;" d="M182.274,107.386h2.107v15.598h-2.107V107.386z" />
				<path style="fill:#ABAEC2;" d="M195.693,122.983h-2.029l-0.571-3.085h-3.302l-0.578,3.085h-2.004l3.366-15.598h1.727
				L195.693,122.983z M192.811,118.319l-1.37-7.402h-0.05l-1.297,7.402H192.811z" />
			</g>
			<g>
				<path style="fill:#ABAEC2;" d="M110.67,127.459h1.32c0.602,0,1.038,0.087,1.31,0.258c0.272,0.17,0.408,0.442,0.408,0.815
				c0,0.255-0.06,0.463-0.179,0.626c-0.119,0.162-0.277,0.26-0.474,0.292v0.029c0.269,0.06,0.463,0.172,0.581,0.338
				c0.119,0.163,0.18,0.383,0.18,0.654c0,0.388-0.141,0.689-0.421,0.905c-0.278,0.218-0.659,0.326-1.138,0.326h-1.588V127.459z
				 M111.57,129.139h0.521c0.244,0,0.421-0.035,0.53-0.111c0.11-0.076,0.164-0.2,0.164-0.375c0-0.162-0.059-0.278-0.178-0.35
				c-0.12-0.069-0.308-0.105-0.564-0.105h-0.474V129.139z M111.57,129.855v1.105h0.586c0.248,0,0.431-0.047,0.549-0.143
				c0.118-0.096,0.177-0.24,0.177-0.436c0-0.351-0.251-0.527-0.755-0.527H111.57z" />
				<path style="fill:#ABAEC2;" d="M120.233,131.703l-0.308-1.011h-1.547l-0.308,1.011h-0.97l1.498-4.261h1.1l1.504,4.261H120.233z
				 M119.71,129.939c-0.284-0.916-0.444-1.432-0.48-1.552c-0.036-0.12-0.062-0.216-0.076-0.286c-0.064,0.247-0.248,0.86-0.549,1.838
				H119.71z" />
				<path style="fill:#ABAEC2;" d="M126.51,128.147c-0.338,0-0.601,0.128-0.786,0.383c-0.186,0.255-0.278,0.609-0.278,1.064
				c0,0.947,0.355,1.419,1.064,1.419c0.299,0,0.659-0.074,1.083-0.222v0.752c-0.349,0.147-0.737,0.219-1.166,0.219
				c-0.618,0-1.09-0.186-1.417-0.563c-0.327-0.373-0.49-0.911-0.49-1.611c0-0.441,0.08-0.827,0.24-1.158
				c0.161-0.334,0.392-0.587,0.692-0.766c0.301-0.175,0.654-0.264,1.058-0.264c0.413,0,0.826,0.099,1.242,0.298l-0.29,0.731
				c-0.158-0.074-0.318-0.141-0.479-0.197C126.824,128.176,126.665,128.147,126.51,128.147z" />
				<path style="fill:#ABAEC2;" d="M134.881,131.703h-1.021l-1.111-1.789l-0.381,0.274v1.515h-0.899v-4.244h0.899v1.942l0.354-0.499
				l1.149-1.443h0.999l-1.481,1.878L134.881,131.703z" />
				<path style="fill:#ABAEC2;"
					d="M139.999,129.32h1.683v2.199c-0.272,0.089-0.529,0.152-0.771,0.188
				c-0.24,0.035-0.487,0.053-0.738,0.053c-0.641,0-1.13-0.188-1.467-0.565c-0.338-0.376-0.507-0.915-0.507-1.62
				c0-0.685,0.196-1.218,0.588-1.601c0.392-0.384,0.935-0.575,1.63-0.575c0.435,0,0.854,0.086,1.259,0.261l-0.299,0.72
				c-0.309-0.155-0.632-0.233-0.967-0.233c-0.388,0-0.699,0.132-0.934,0.393c-0.234,0.263-0.352,0.613-0.352,1.054
				c0,0.461,0.095,0.811,0.283,1.055c0.189,0.243,0.463,0.364,0.822,0.364c0.189,0,0.379-0.019,0.572-0.057v-0.886h-0.804V129.32z" />
				<path style="fill:#ABAEC2;"
					d="M146.563,130.075v1.628h-0.899v-4.244h1.235c0.577,0,1.004,0.106,1.28,0.314
				c0.277,0.211,0.416,0.528,0.416,0.957c0,0.249-0.069,0.472-0.206,0.667c-0.139,0.194-0.333,0.347-0.584,0.457
				c0.639,0.953,1.055,1.569,1.248,1.849h-0.998l-1.014-1.628H146.563z M146.563,129.343h0.29c0.284,0,0.494-0.047,0.63-0.143
				c0.136-0.094,0.203-0.243,0.203-0.447c0-0.201-0.069-0.344-0.208-0.428c-0.138-0.085-0.352-0.129-0.642-0.129h-0.273V129.343z" />
				<path style="fill:#ABAEC2;"
					d="M156.411,129.575c0,0.702-0.174,1.242-0.522,1.62c-0.348,0.376-0.847,0.565-1.497,0.565
				c-0.65,0-1.149-0.189-1.498-0.565c-0.348-0.378-0.522-0.919-0.522-1.625c0-0.707,0.175-1.245,0.524-1.618
				c0.35-0.373,0.85-0.559,1.501-0.559c0.652,0,1.151,0.188,1.496,0.562C156.238,128.331,156.411,128.871,156.411,129.575z
				 M153.314,129.575c0,0.475,0.09,0.832,0.27,1.072c0.181,0.24,0.449,0.359,0.808,0.359c0.717,0,1.076-0.477,1.076-1.432
				c0-0.955-0.357-1.434-1.071-1.434c-0.357,0-0.627,0.121-0.809,0.361C153.405,128.743,153.314,129.102,153.314,129.575z" />
				<path style="fill:#ABAEC2;" d="M163.715,127.459v2.747c0,0.313-0.069,0.587-0.21,0.824c-0.141,0.236-0.343,0.416-0.608,0.541
				c-0.265,0.127-0.578,0.189-0.941,0.189c-0.546,0-0.97-0.141-1.271-0.42c-0.302-0.278-0.452-0.661-0.452-1.147v-2.734h0.896v2.598
				c0,0.328,0.066,0.567,0.197,0.72c0.132,0.153,0.35,0.23,0.653,0.23c0.294,0,0.507-0.077,0.64-0.231
				c0.133-0.154,0.199-0.394,0.199-0.726v-2.591H163.715z" />
				<path style="fill:#ABAEC2;" d="M171.492,131.703h-1.144l-1.846-3.21h-0.026c0.036,0.566,0.055,0.971,0.055,1.213v1.997h-0.803
				v-4.244h1.134l1.844,3.179h0.02c-0.029-0.552-0.044-0.941-0.044-1.17v-2.009h0.811V131.703z" />
				<path style="fill:#ABAEC2;" d="M179.051,129.541c0,0.697-0.198,1.232-0.596,1.606c-0.398,0.37-0.973,0.557-1.724,0.557h-1.2
				v-4.244h1.332c0.692,0,1.23,0.183,1.613,0.548C178.86,128.374,179.051,128.884,179.051,129.541z M178.117,129.564
				c0-0.911-0.402-1.367-1.207-1.367h-0.479v2.764h0.387C177.683,130.96,178.117,130.495,178.117,129.564z" />
			</g>
		</g>
	</g>
</svg>